<svg width="11" height="11" viewBox="0 0 11 11" fill="black" xmlns="http://www.w3.org/2000/svg">
<path d="M0.472656 5.76953C0.472656 5.2832 0.871094 4.88477 1.36328 4.88477H4.61523V1.63281C4.61523 1.14648 5.00781 0.742188 5.5 0.742188C5.99219 0.742188 6.39062 1.14648 6.39062 1.63281V4.88477H9.64258C10.1289 4.88477 10.5273 5.2832 10.5273 5.76953C10.5273 6.26172 10.1289 6.66016 9.64258 6.66016H6.39062V9.91211C6.39062 10.3984 5.99219 10.8027 5.5 10.8027C5.00781 10.8027 4.61523 10.3984 4.61523 9.91211V6.66016H1.36328C0.871094 6.66016 0.472656 6.26172 0.472656 5.76953Z"/>
</svg>
