<svg width="24" height="24" viewBox="0 0 24 24" fill="black" xmlns="http://www.w3.org/2000/svg">
<g id="Symbol/plus">
<path id="Vector" d="M12 7C12.1658 7 12.3247 7.06585 12.4419 7.18306C12.5592 7.30027 12.625 7.45924 12.625 7.625V11.375H16.375C16.5408 11.375 16.6997 11.4408 16.8169 11.5581C16.9342 11.6753 17 11.8342 17 12C17 12.1658 16.9342 12.3247 16.8169 12.4419C16.6997 12.5592 16.5408 12.625 16.375 12.625H12.625V16.375C12.625 16.5408 12.5592 16.6997 12.4419 16.8169C12.3247 16.9342 12.1658 17 12 17C11.8342 17 11.6753 16.9342 11.5581 16.8169C11.4408 16.6997 11.375 16.5408 11.375 16.375V12.625H7.625C7.45924 12.625 7.30027 12.5592 7.18306 12.4419C7.06585 12.3247 7 12.1658 7 12C7 11.8342 7.06585 11.6753 7.18306 11.5581C7.30027 11.4408 7.45924 11.375 7.625 11.375H11.375V7.625C11.375 7.45924 11.4408 7.30027 11.5581 7.18306C11.6753 7.06585 11.8342 7 12 7Z"/>
</g>
</svg>
